<svg width="183" height="193" viewBox="0 0 183 193" fill="none" xmlns="http://www.w3.org/2000/svg">
<g filter="url(#filter0_d)">
<path d="M53.7224 108.918L29.4626 162.663C28.6258 164.516 30.1433 166.569 32.1715 166.327L45.7642 164.711L53.5976 175.881C54.7657 177.547 57.314 177.309 58.1501 175.456L82.711 121.043L53.7224 108.918Z" fill="#FFA369"/>
<path d="M124.278 108.918L148.538 162.663C149.374 164.516 147.857 166.569 145.829 166.327L132.236 164.711L124.402 175.881C123.234 177.547 120.686 177.309 119.85 175.456L95.2888 121.043L124.278 108.918Z" fill="#D23C69"/>
<path d="M148.538 162.663L131.467 124.845L130.898 123.584C130.898 123.584 127.515 124.845 124.955 129.535C123.727 131.784 121.826 133.439 120.564 134.37C119.822 134.917 119.562 135.901 119.94 136.739L132.568 164.751L145.828 166.328C147.857 166.569 149.374 164.517 148.538 162.663Z" fill="#FF507D"/>
<path d="M53.7224 108.918L29.4626 162.663C28.6258 164.516 30.1433 166.568 32.1715 166.327L45.4318 164.751L57.6617 137.622C58.3101 136.184 59.9562 135.587 61.4567 136.096C62.8101 136.556 64.2414 136.803 65.703 136.803C66.3965 136.803 67.0967 136.749 67.7826 136.642L75.1297 135.492C75.1564 135.491 75.1818 135.49 75.2062 135.49C75.4304 135.49 75.5594 135.53 75.6734 135.599L76.0405 135.822L82.711 121.043L53.7224 108.918Z" fill="#FFA369"/>
<path d="M155.919 71.2459L152.041 77.5706C151.166 78.9973 150.829 80.6871 151.09 82.3382L152.246 89.6439C152.66 92.2595 151.565 94.8858 149.412 96.4432L143.4 100.791C142.039 101.776 141.074 103.209 140.678 104.836L138.928 112.029C138.303 114.597 136.286 116.603 133.702 117.224L126.469 118.965C124.834 119.358 123.392 120.318 122.402 121.671L118.03 127.647C116.464 129.789 113.823 130.877 111.192 130.466L103.848 129.316C102.187 129.056 100.488 129.391 99.0525 130.262L92.6931 134.118C90.4257 135.492 87.5756 135.492 85.3086 134.118L78.9482 130.261C77.5134 129.391 75.8141 129.056 74.1537 129.316L66.8067 130.465C64.1763 130.877 61.5351 129.788 59.969 127.647L55.5961 121.669C54.606 120.315 53.1646 119.356 51.5289 118.963L44.2956 117.222C41.7121 116.6 39.6954 114.595 39.0703 112.026L37.3202 104.833C36.9246 103.207 35.9595 101.773 34.5987 100.789L28.5885 96.4411C26.4347 94.8834 25.3403 92.2571 25.754 89.6411L26.91 82.3382C27.1714 80.6871 26.8345 78.9973 25.9591 77.5699L22.0807 71.2459C20.698 68.9912 20.698 66.1572 22.0807 63.9028L25.9588 57.5782C26.8335 56.1515 27.1707 54.4617 26.9096 52.8106L25.7537 45.5049C25.34 42.8893 26.4344 40.263 28.5881 38.7056L34.5998 34.3573C35.9609 33.3728 36.9256 31.9395 37.3212 30.3129L39.0717 23.1203C39.6971 20.5513 41.7139 18.5459 44.2973 17.9243L51.5303 16.1841C53.166 15.7907 54.6081 14.831 55.5979 13.4779L59.9696 7.50173C61.5362 5.3601 64.1773 4.27183 66.8081 4.68321L74.1523 5.83268C75.8127 6.09265 77.512 5.75766 78.9475 4.88718L85.3068 1.03121C87.5743 -0.343654 90.4243 -0.343654 92.6914 1.03121L99.0521 4.88753C100.487 5.75731 102.186 6.09265 103.847 5.83302L111.194 4.68356C113.824 4.27217 116.465 5.36045 118.031 7.50208L122.404 13.48C123.394 14.8334 124.836 15.7927 126.471 16.1861L133.705 17.9268C136.288 18.5487 138.305 20.5541 138.93 23.123L140.68 30.3154C141.076 31.9419 142.041 33.3759 143.402 34.3601L149.412 38.707C151.565 40.2647 152.66 42.891 152.246 45.507L151.09 52.8099C150.829 54.461 151.165 56.1508 152.041 57.5782L155.919 63.9018C157.302 66.1575 157.302 68.9912 155.919 71.2459Z" fill="#030F4F"/>
<path d="M89.002 117.598C116.785 117.598 139.308 95.2016 139.308 67.5746C139.308 39.9475 116.785 17.5513 89.002 17.5513C61.2189 17.5513 38.6962 39.9475 38.6962 67.5746C38.6962 95.2016 61.2189 117.598 89.002 117.598Z" fill="#E1E6F0"/>
<path d="M89.0001 88.6075L70.6995 98.794C68.7954 99.8539 66.5175 98.2077 66.9427 96.0799L71.0301 75.6246L55.6321 61.4653C54.0301 59.9919 54.9002 57.329 57.0668 57.0735L77.8939 54.618L86.6781 35.6807C87.5917 33.7105 90.4081 33.7105 91.3221 35.6807L100.106 54.618L120.933 57.0735C123.1 57.329 123.97 59.9919 122.368 61.4653L106.97 75.6246L111.057 96.0799C111.483 98.2077 109.204 99.8539 107.301 98.794L89.0001 88.6075Z" fill="#FFA369"/>
<g clip-path="url(#clip0)">
<path d="M124.278 108.918L148.537 162.663C149.374 164.516 147.857 166.569 145.828 166.327L132.236 164.711L124.402 175.881C123.234 177.547 120.686 177.309 119.849 175.456L95.2886 121.043L124.278 108.918Z" fill="#F27137"/>
<path d="M148.538 162.663L131.467 124.845L130.898 123.584C130.898 123.584 127.516 124.845 124.955 129.535C123.727 131.784 121.827 133.439 120.564 134.37C119.822 134.917 119.563 135.901 119.94 136.739L132.568 164.751L145.828 166.328C147.857 166.569 149.374 164.517 148.538 162.663Z" fill="#F27137"/>
<path d="M155.919 71.246L152.041 77.5706C151.166 78.9973 150.829 80.6871 151.09 82.3382L152.246 89.644C152.66 92.2595 151.566 94.8859 149.412 96.4432L143.4 100.792C142.039 101.776 141.074 103.209 140.679 104.836L138.928 112.029C138.303 114.598 136.286 116.603 133.703 117.225L126.47 118.965C124.834 119.358 123.392 120.318 122.402 121.671L118.031 127.647C116.464 129.789 113.823 130.877 111.192 130.466L103.848 129.316C102.188 129.056 100.488 129.391 99.0527 130.262L92.6934 134.118C90.426 135.492 87.5759 135.492 85.3088 134.118L78.9485 130.261C77.5137 129.392 75.8143 129.056 74.1539 129.316L66.8069 130.465C64.1765 130.877 61.5354 129.788 59.9692 127.647L55.5964 121.669C54.6063 120.315 53.1649 119.356 51.5291 118.963L44.2958 117.222C41.7124 116.6 39.6956 114.595 39.0705 112.026L37.3204 104.833C36.9248 103.207 35.9597 101.773 34.599 100.789L28.5887 96.4412C26.435 94.8834 25.3405 92.2571 25.7543 89.6412L26.9102 82.3382C27.1716 80.6871 26.8348 78.9973 25.9594 77.5699L22.0809 71.246C20.6983 68.9913 20.6983 66.1572 22.0809 63.9029L25.959 57.5783C26.8337 56.1516 27.171 54.4618 26.9099 52.8107L25.7539 45.5049C25.3402 42.8893 26.4346 40.263 28.5883 38.7056L34.6 34.3574C35.9611 33.3728 36.9258 31.9395 37.3215 30.313L39.0719 23.1203C39.6974 20.5514 41.7141 18.546 44.2975 17.9244L51.5305 16.1841C53.1663 15.7907 54.6083 14.831 55.5981 13.478L59.9699 7.50179C61.5364 5.36016 64.1776 4.27189 66.8083 4.68328L74.1525 5.83274C75.8129 6.09271 77.5123 5.75772 78.9478 4.88724L85.3071 1.03127C87.5745 -0.343593 90.4246 -0.343593 92.6917 1.03127L99.0524 4.88759C100.487 5.75737 102.186 6.09271 103.847 5.83308L111.194 4.68362C113.824 4.27223 116.465 5.36051 118.032 7.50214L122.404 13.48C123.395 14.8335 124.836 15.7928 126.472 16.1862L133.705 17.9268C136.288 18.5487 138.305 20.5542 138.93 23.1231L140.68 30.3154C141.076 31.942 142.041 33.3759 143.402 34.3602L149.412 38.707C151.566 40.2648 152.66 42.8911 152.246 45.507L151.09 52.81C150.829 54.4611 151.166 56.1509 152.041 57.5783L155.919 63.9019C157.302 66.1576 157.302 68.9913 155.919 71.246Z" fill="#354181"/>
<path d="M89.0021 117.598C116.785 117.598 139.308 95.2016 139.308 67.5746C139.308 39.9475 116.785 17.5513 89.0021 17.5513C61.219 17.5513 38.6963 39.9475 38.6963 67.5746C38.6963 95.2016 61.219 117.598 89.0021 117.598Z" fill="#A0A0B5"/>
<path d="M89.0002 88.6076L70.6996 98.7941C68.7955 99.854 66.5176 98.2077 66.9428 96.0799L71.0302 75.6247L55.6322 61.4654C54.0302 59.992 54.9004 57.329 57.067 57.0736L77.894 54.618L86.6782 35.6807C87.5919 33.7106 90.4082 33.7106 91.3222 35.6807L100.106 54.618L120.933 57.0736C123.1 57.329 123.97 59.992 122.368 61.4654L106.97 75.6247L111.058 96.0799C111.483 98.2077 109.205 99.854 107.301 98.7941L89.0002 88.6076Z" fill="#F27137"/>
</g>
</g>
<defs>
<filter id="filter0_d" x="-5" y="0" width="188" height="193" filterUnits="userSpaceOnUse" color-interpolation-filters="sRGB">
<feFlood flood-opacity="0" result="BackgroundImageFix"/>
<feColorMatrix in="SourceAlpha" type="matrix" values="0 0 0 0 0 0 0 0 0 0 0 0 0 0 0 0 0 0 127 0"/>
<feMorphology radius="10" operator="erode" in="SourceAlpha" result="effect1_dropShadow"/>
<feOffset dy="11"/>
<feGaussianBlur stdDeviation="7.5"/>
<feColorMatrix type="matrix" values="0 0 0 0 0.192157 0 0 0 0 0.192157 0 0 0 0 0.337255 0 0 0 0.3 0"/>
<feBlend mode="normal" in2="BackgroundImageFix" result="effect1_dropShadow"/>
<feBlend mode="normal" in="SourceGraphic" in2="effect1_dropShadow" result="shape"/>
</filter>
<clipPath id="clip0">
<rect width="89" height="177" fill="white" transform="translate(89)"/>
</clipPath>
</defs>
</svg>
