<svg width="178" height="193" viewBox="0 0 178 193" fill="none" xmlns="http://www.w3.org/2000/svg">
<g filter="url(#filter0_d)">
<path d="M52.129 35.1258L41.7355 24.7693C39.3245 22.367 36.1174 21.0443 32.7044 21.0443C29.2915 21.0443 26.0844 22.3673 23.6737 24.7693L16.1397 32.2772C11.1803 37.2184 11.1803 45.2587 16.1397 50.2002L26.5551 60.5786C27.5737 61.5936 28.9098 62.1011 30.2465 62.1011C31.5791 62.1011 32.9123 61.596 33.9303 60.5862C35.9689 58.5631 50.0859 44.4795 52.1217 42.4592C54.16 40.4365 54.1635 37.1534 52.129 35.1258Z" fill="#FFA369"/>
<path d="M89 1.03711C86.12 1.03711 83.7852 3.35885 83.7852 6.22266V22.8164C83.7852 25.6802 86.12 28.002 89 28.002C91.88 28.002 94.2148 25.6802 94.2148 22.8164V6.22266C94.2148 3.35885 91.88 1.03711 89 1.03711Z" fill="#FFA369"/>
<path d="M101.863 0H76.1367C73.2567 0 70.9219 2.32174 70.9219 5.18555C70.9219 8.04935 73.2567 10.3711 76.1367 10.3711H101.863C104.743 10.3711 107.078 8.04935 107.078 5.18555C107.078 2.32174 104.743 0 101.863 0Z" fill="#030F4F"/>
<path d="M89 0H76.1367C73.2567 0 70.9219 2.32174 70.9219 5.18555C70.9219 8.04935 73.2567 10.3711 76.1367 10.3711H89V0Z" fill="#354181"/>
<path d="M145.545 41.0055C130.442 25.9564 110.36 17.6682 89 17.6682C67.6396 17.6682 47.5583 25.9564 32.4555 41.0055C17.3554 56.0519 9.03941 76.0567 9.03941 97.334C9.03941 118.611 17.3554 138.616 32.4555 153.663C47.5583 168.712 67.6396 177 89 177C110.36 177 130.442 168.712 145.545 153.663C160.645 138.616 168.961 118.611 168.961 97.334C168.961 76.0567 160.645 56.0519 145.545 41.0055Z" fill="#030F4F"/>
<path d="M89 17.6682C67.6397 17.6682 47.5583 25.9564 32.4555 41.0055C17.3554 56.0519 9.03941 76.0567 9.03941 97.334C9.03941 118.611 17.3554 138.616 32.4555 153.663C47.5583 168.712 67.6397 177 89 177V17.6682Z" fill="#354181"/>
<path d="M89 37.5219C55.8969 37.5219 28.9654 64.3533 28.9654 97.3337C28.9654 130.314 55.8969 157.146 89 157.146C122.103 157.146 149.035 130.314 149.035 97.3337C149.035 64.3533 122.103 37.5219 89 37.5219Z" fill="#E1E6F0"/>
<path d="M89 37.5219C55.8969 37.5219 28.9654 64.3533 28.9654 97.3337C28.9654 130.314 55.8969 157.146 89 157.146V37.5219Z" fill="#F4F2E6"/>
<path d="M89 50.4751C91.88 50.4751 94.2148 48.1533 94.2148 45.2895V37.7504C92.4957 37.6025 90.7571 37.5223 89 37.5223C87.2429 37.5223 85.5043 37.6025 83.7852 37.7504V45.2895C83.7852 48.1533 86.12 50.4751 89 50.4751Z" fill="#FFA369"/>
<path d="M89 144.193C86.12 144.193 83.7852 146.515 83.7852 149.379V156.918C85.5043 157.066 87.2429 157.146 89 157.146C90.7571 157.146 92.4957 157.066 94.2148 156.918V149.379C94.2148 146.515 91.88 144.193 89 144.193Z" fill="#FFA369"/>
<path d="M148.807 92.1486H141.339C138.459 92.1486 136.124 94.4703 136.124 97.3341C136.124 100.198 138.459 102.52 141.339 102.52H148.807C148.955 100.81 149.035 99.0813 149.035 97.3341C149.035 95.5869 148.955 93.8581 148.807 92.1486Z" fill="#FFA369"/>
<path d="M41.8763 97.3341C41.8763 94.4703 39.5414 92.1486 36.6614 92.1486H29.1934C29.0453 93.8581 28.9654 95.5869 28.9654 97.3341C28.9654 99.0813 29.0453 100.81 29.1934 102.52H36.6614C39.5414 102.52 41.8763 100.198 41.8763 97.3341Z" fill="#FFA369"/>
<path d="M101.863 94.3414H94.5062V73.3686C94.5062 70.5048 92.1714 68.183 89.2914 68.183C86.4114 68.183 84.0765 70.5048 84.0765 73.3686V99.5269C84.0765 102.391 86.4114 104.712 89.2914 104.712H101.863C104.743 104.712 107.078 102.391 107.078 99.5269C107.078 96.6631 104.743 94.3414 101.863 94.3414Z" fill="#FFA369"/>
</g>
<defs>
<filter id="filter0_d" x="-5" y="0" width="188" height="193" filterUnits="userSpaceOnUse" color-interpolation-filters="sRGB">
<feFlood flood-opacity="0" result="BackgroundImageFix"/>
<feColorMatrix in="SourceAlpha" type="matrix" values="0 0 0 0 0 0 0 0 0 0 0 0 0 0 0 0 0 0 127 0"/>
<feMorphology radius="10" operator="erode" in="SourceAlpha" result="effect1_dropShadow"/>
<feOffset dy="11"/>
<feGaussianBlur stdDeviation="7.5"/>
<feColorMatrix type="matrix" values="0 0 0 0 0.192157 0 0 0 0 0.192157 0 0 0 0 0.337255 0 0 0 0.3 0"/>
<feBlend mode="normal" in2="BackgroundImageFix" result="effect1_dropShadow"/>
<feBlend mode="normal" in="SourceGraphic" in2="effect1_dropShadow" result="shape"/>
</filter>
</defs>
</svg>
