<svg width="187" height="193" viewBox="0 0 187 193" fill="none" xmlns="http://www.w3.org/2000/svg">
<g clip-path="url(#clip0)" filter="url(#filter0_d)">
<path d="M159.875 0H27.125C14.9267 0 5 9.92675 5 22.125V140.125C5 152.323 14.9267 162.25 27.125 162.25H159.875C172.073 162.25 182 152.323 182 140.125V22.125C182 9.92675 172.073 0 159.875 0Z" fill="#354181"/>
<path d="M159.875 147.5H27.125C23.0614 147.5 19.75 144.196 19.75 140.125V36.875H167.25V140.125C167.25 144.196 163.939 147.5 159.875 147.5Z" fill="#FAFAFA"/>
<path d="M133.996 87.2168L95.2774 74.045C94.1269 73.6468 92.8731 73.6468 91.7226 74.045L53.0039 87.2168C50.7545 87.9764 49.25 90.0783 49.25 92.453V122.086C49.25 158.253 89.6207 175.835 91.3391 176.565C92.0324 176.853 92.7625 177 93.5 177C94.2375 177 94.9676 176.853 95.6609 176.558C97.3793 175.827 137.75 158.253 137.75 122.086V92.453C137.75 90.0783 136.245 87.9764 133.996 87.2168Z" fill="#FFA369"/>
<path d="M117.734 115.183L97.4531 140.995C96.2141 142.574 94.3778 143.584 92.3791 143.776L91.6564 143.813C89.9085 143.813 88.1975 143.193 86.8626 142.035L73.9564 130.973C70.8589 128.325 70.4975 123.664 73.1599 120.574C75.8075 117.484 80.4685 117.13 83.5513 119.777L90.6165 125.832L106.141 106.075C108.656 102.874 113.287 102.306 116.495 104.836C119.696 107.343 120.257 111.982 117.734 115.183Z" fill="white"/>
<path d="M93.5 0H27.125C14.9267 0 5 9.92675 5 22.125V140.125C5 152.323 14.9267 162.25 27.125 162.25H69.2363C64.6711 158.208 60.1798 153.297 56.6103 147.5H27.125C23.0614 147.5 19.75 144.196 19.75 140.125V36.875H93.5V0Z" fill="#030F4F"/>
<path d="M93.5 36.875H19.75V140.125C19.75 144.196 23.0614 147.5 27.125 147.5H56.6177C52.2369 140.376 49.25 131.917 49.25 122.086V92.453C49.25 90.0856 50.7545 87.9838 53.0039 87.2168L91.7227 74.045C92.2979 73.8459 92.8953 73.75 93.5 73.75V36.875Z" fill="#E1E6F0"/>
<path d="M93.5 73.75C92.8952 73.75 92.2979 73.8459 91.7226 74.045L53.0039 87.2168C50.7545 87.9764 49.25 90.0783 49.25 92.453V122.086C49.25 131.917 52.2369 140.376 56.6176 147.5C60.1871 153.297 64.6785 158.209 69.2436 162.25C79.6793 171.498 90.4689 176.189 91.3465 176.558C92.0324 176.853 92.7625 177 93.5 177V143.577C93.1312 143.672 92.7551 143.739 92.379 143.776L91.6562 143.813C89.9084 143.813 88.1974 143.193 86.8625 142.035L73.9563 130.973C70.8588 128.325 70.4974 123.664 73.1597 120.574C74.6126 118.878 76.6776 118 78.7574 118C80.4536 118 82.1572 118.583 83.5437 119.77L90.609 125.825L93.5 122.152V73.75Z" fill="#F27137"/>
<path d="M78.7573 118C76.6776 118 74.6126 118.87 73.1523 120.574C70.4973 123.664 70.8513 128.325 73.9488 130.973L86.8551 142.035C88.1973 143.186 89.9009 143.812 91.6488 143.812L92.3716 143.776C92.7551 143.739 93.1312 143.672 93.4926 143.577V122.152L90.6016 125.825L83.5363 119.77C82.1572 118.583 80.4536 118 78.7573 118Z" fill="#DEDEDE"/>
</g>
<defs>
<filter id="filter0_d" x="0" y="0" width="187" height="193" filterUnits="userSpaceOnUse" color-interpolation-filters="sRGB">
<feFlood flood-opacity="0" result="BackgroundImageFix"/>
<feColorMatrix in="SourceAlpha" type="matrix" values="0 0 0 0 0 0 0 0 0 0 0 0 0 0 0 0 0 0 127 0"/>
<feMorphology radius="10" operator="erode" in="SourceAlpha" result="effect1_dropShadow"/>
<feOffset dy="11"/>
<feGaussianBlur stdDeviation="7.5"/>
<feColorMatrix type="matrix" values="0 0 0 0 0.192157 0 0 0 0 0.192157 0 0 0 0 0.337255 0 0 0 0.3 0"/>
<feBlend mode="normal" in2="BackgroundImageFix" result="effect1_dropShadow"/>
<feBlend mode="normal" in="SourceGraphic" in2="effect1_dropShadow" result="shape"/>
</filter>
<clipPath id="clip0">
<rect width="177" height="177" fill="white" transform="translate(5)"/>
</clipPath>
</defs>
</svg>
