<svg width="44" height="45" viewBox="0 0 44 45" fill="none" xmlns="http://www.w3.org/2000/svg">
<g clip-path="url(#clip0)">
<path d="M12.752 14.1946L12.5007 14.4734C11.9567 15.0772 11.5315 15.7715 11.2243 16.563C10.3783 19.2561 10.6319 22.5813 12.3738 24.5272C12.9825 25.1937 13.8276 25.7634 14.9331 26.2209C16.0203 26.6708 17.4537 26.9714 19.2569 27.1025L21.7454 27.2834L19.4849 28.3397C19.4364 28.3624 19.389 28.3844 19.3427 28.406C18.7681 28.6739 18.3654 28.8616 18.0524 29.1058C17.7549 29.3378 17.5449 29.6195 17.4277 30.1115L17.3686 30.3597L17.1565 30.5014C15.5109 31.601 13.5263 31.3231 12.121 30.1736C11.6324 29.8125 11.2582 29.3319 10.9529 28.94C10.9065 28.8804 10.8617 28.8228 10.8183 28.7681C10.4575 28.3125 10.1688 28.0054 9.79871 27.8449L9.74113 27.8199C10.3153 28.3356 10.8615 28.9187 11.2323 29.5987L11.24 29.613L11.2471 29.6276C11.6543 30.4723 12.0497 31.0401 12.4191 31.381C13.604 32.168 15.1123 32.5229 16.3708 32.0628L17.4174 31.6802L17.2352 32.7795C17.1711 33.1669 17.2121 33.6671 17.2625 34.2798C17.2689 34.3589 17.2756 34.4398 17.2822 34.5226C17.3334 35.1661 17.3877 35.9758 17.153 36.6143L17.1404 36.6485L17.1241 36.6811C16.9798 36.9692 16.7867 37.2252 16.5489 37.4479C17.0074 37.3194 17.4006 37.0725 17.6557 36.7315C17.7366 36.6204 17.805 36.4399 17.805 36.1377V32.0208C17.805 31.4872 17.9137 30.9388 18.2964 30.5565C18.5626 30.2905 18.8755 30.0904 19.2327 29.9885L20.061 29.7522V30.6135V36.0383C20.061 36.5432 20.0157 37.0012 19.9154 37.4019C19.9154 37.4019 19.9154 37.4019 19.9154 37.4019L19.2848 37.2441C19.201 37.579 19.1263 37.8138 19.0593 37.9477L12.752 14.1946ZM12.752 14.1946L12.6361 13.8376C12.241 12.6208 12.3272 11.2032 12.7314 9.81108C14.1606 9.99225 15.6298 10.5887 16.8375 11.5767L17.0969 11.7889L17.4202 11.7006C20.1545 10.9541 23.2255 10.9545 26.1044 11.6081L26.414 11.6783L26.6597 11.4775C26.975 11.2198 27.5298 10.8748 28.358 10.4446C28.9895 10.1166 29.7754 9.8969 30.7316 9.80147C30.8883 10.2956 30.9985 10.8418 31.0586 11.4418C31.1351 12.2057 31.0799 12.9297 30.8992 13.6217L30.8059 13.9791L31.0652 14.2422C32.3507 15.5466 32.94 17.2664 32.9916 19.3194C32.9839 20.9534 32.7543 22.3092 32.1688 23.4353C31.5907 24.5471 30.6354 25.4928 29.0674 26.2565C28.0355 26.7162 26.6846 27.0237 24.9927 27.1537L22.6486 27.3338L24.7523 28.3834C25.4689 28.7409 25.9117 29.0298 26.2161 29.4031C26.508 29.761 26.7217 30.2593 26.8339 31.1285C26.889 31.9282 26.8865 32.7539 26.8839 33.6067C26.8838 33.6487 26.8837 33.6907 26.8835 33.7327C26.881 34.6268 26.8815 35.5496 26.9596 36.4465L26.9704 36.5702L27.026 36.6811C27.1726 36.974 27.3698 37.2337 27.6131 37.459C27.1703 37.3365 26.7791 37.0888 26.4902 36.7256C26.4113 36.6142 26.3452 36.4348 26.3452 36.1377V32.0208C26.3452 31.4767 26.2242 30.9196 25.8109 30.5385L25.8108 30.5385C25.5349 30.2841 25.2212 30.0889 24.8691 29.9885L24.0408 29.7523V30.6136V36.0383C24.0408 36.5458 24.0711 36.9906 24.1395 37.3619C24.1841 37.6039 24.25 37.8444 24.3531 38.0586C24.0103 37.9097 23.7734 37.6747 23.6125 37.3533C23.3551 36.8392 23.2274 36.3044 23.2274 35.7375V30.4121V29.7621H22.5774H21.4709H20.8209V30.4121V35.7374C20.8209 36.3095 20.7008 36.847 20.4589 37.3608C20.356 37.5659 20.1304 37.79 19.7969 37.9726C19.7779 37.983 19.7587 37.9931 19.7394 38.0031L12.752 14.1946ZM28.9634 37.9209L28.6668 37.7889L28.3696 37.6566C28.4014 37.5851 28.4451 37.5401 28.4738 37.5169C28.5002 37.4957 28.5139 37.4925 28.4993 37.4983C28.4855 37.5037 28.4556 37.5135 28.404 37.5237C28.3593 37.5325 28.3033 37.5407 28.2348 37.5472C28.1042 37.5449 27.9758 37.5331 27.8505 37.5118L27.7788 37.6015C27.9435 37.7331 28.0972 37.8489 28.239 37.9469L28.2598 38.1975M28.9634 37.9209L28.6668 37.7889L28.3696 37.6567C28.3489 37.703 28.3184 37.8195 28.3727 37.9552C28.4111 38.0514 28.468 38.0948 28.479 38.1024M28.9634 37.9209C28.8964 38.0715 28.6622 38.164 28.2598 38.1975M28.9634 37.9209C29.0305 37.7702 28.9807 37.6453 28.813 37.5449C28.6454 37.4444 28.4361 37.2946 28.1846 37.0937L25.9718 37.1179M28.479 38.1024L28.479 38.1024C28.4101 38.0612 28.3374 38.0143 28.2613 37.9622L28.2598 38.1975M28.479 38.1024C28.4802 38.1033 28.4809 38.1037 28.4809 38.1036C28.4809 38.1036 28.4803 38.1032 28.479 38.1025L28.479 38.1024ZM28.2598 38.1975C27.3767 38.1921 26.5322 37.8306 25.9718 37.1179M25.9718 37.1179C25.7874 36.8668 25.6952 36.5395 25.6952 36.1377V32.0208C25.6952 31.5519 25.5881 31.2173 25.3703 31.0164C25.3605 31.0073 25.3506 30.9984 25.3408 30.9897V30.6136H24.6908L24.5126 31.2387C24.5671 31.2542 24.6267 31.2787 24.6908 31.3154V36.0383C24.6908 37.0093 24.808 37.6463 25.0427 37.9477C25.2207 38.1861 25.389 38.4463 25.4697 38.7506M25.9718 37.1179L24.7315 38.18L25.0427 37.9477L24.741 38.1826C24.8983 38.2247 25.0196 38.2513 25.1091 38.2659C25.1891 38.2789 25.2217 38.2786 25.2217 38.2791C25.2217 38.2792 25.2183 38.2794 25.2119 38.2802L25.2747 38.7832M25.4697 38.7506L25.2747 38.7832M25.4697 38.7506L25.277 38.8018L24.9292 38.894C25.0918 38.9251 25.2125 38.9352 25.2924 38.9252C25.4265 38.9085 25.4864 38.8511 25.4697 38.7506ZM25.2747 38.7832L25.2118 38.2802C25.2083 38.2807 25.1833 38.2839 25.1459 38.2982C25.1081 38.3128 25.0458 38.3434 24.9832 38.4046C24.9166 38.4697 24.8661 38.5538 24.8405 38.648C24.8163 38.7373 24.8209 38.8119 24.8285 38.8576L25.2747 38.7832Z" stroke="white" stroke-width="1.3"/>
<path d="M21.9997 0.931641C9.8419 0.931641 -0.0471001 10.8206 -0.0471001 22.9784C-0.0471001 35.1361 9.8419 45.0251 21.9997 45.0251C34.1574 45.0251 44.0464 35.1361 44.0464 22.9784C44.0464 10.8206 34.1574 0.931641 21.9997 0.931641ZM21.9997 43.5566C10.6532 43.5566 1.4214 34.3249 1.4214 22.9784C1.4214 11.6319 10.6532 2.40014 21.9997 2.40014C33.3461 2.40014 42.5779 11.6319 42.5779 22.9784C42.5779 34.3249 33.3461 43.5566 21.9997 43.5566Z" fill="white"/>
</g>
<defs>
<clipPath id="clip0">
<rect width="44" height="44" fill="white" transform="translate(0 0.978516)"/>
</clipPath>
</defs>
</svg>
