<svg width="44" height="45" viewBox="0 0 44 45" fill="none" xmlns="http://www.w3.org/2000/svg">
<g clip-path="url(#clip0)">
<path d="M21.9996 0.931396C9.8419 0.931396 -0.0471039 10.8204 -0.0471039 22.9781C-0.0471039 35.1359 9.8419 45.0249 21.9996 45.0249C34.1574 45.0249 44.0464 35.1359 44.0464 22.9781C44.0464 10.8204 34.1574 0.931396 21.9996 0.931396ZM21.9996 43.5564C10.6531 43.5564 1.4214 34.3246 1.4214 22.9781C1.4214 11.6316 10.6531 2.3999 21.9996 2.3999C33.3461 2.3999 42.5779 11.6316 42.5779 22.9781C42.5779 34.3246 33.3461 43.5564 21.9996 43.5564Z" fill="white"/>
<path d="M30.0451 15.4228C29.0178 14.317 27.7726 13.4359 26.388 12.8351C25.0034 12.2342 23.5094 11.9267 22 11.9317C20.5563 11.9317 19.1469 12.2095 17.8104 12.7595C15.7801 13.5869 14.043 15.0014 12.8214 16.8219C11.5998 18.6424 10.9493 20.7861 10.9532 22.9785C10.9532 26.317 12.441 29.441 15.0384 31.5516C17.0073 33.1488 19.4647 34.022 22 34.0252C23.5918 34.0257 25.1646 33.6794 26.609 33.0105C28.0827 32.3349 29.3891 31.3424 30.4351 30.1039C31.4811 28.8654 32.241 27.4113 32.6604 25.8453V25.844C32.9161 24.8815 33.0468 23.9176 33.0468 22.9785C33.0482 20.1689 31.9742 17.4654 30.0451 15.4228ZM31.3995 24.7728C31.1561 24.7206 30.9196 24.6972 30.6776 24.6546C30.3573 24.5982 30.0369 24.5391 29.7206 24.4978C29.3453 24.4497 28.9781 24.425 28.6096 24.4002C28.3126 24.381 28.0156 24.3548 27.7241 24.3507C27.6334 24.3493 27.5371 24.3356 27.4464 24.3356C26.9624 24.3356 26.4825 24.359 26.0054 24.4002C25.9435 24.4057 25.883 24.4181 25.8211 24.4236C25.4361 24.4621 25.0525 24.5061 24.6757 24.5721C24.6139 24.4112 24.5438 24.26 24.4805 24.1005C24.227 23.4582 23.9629 22.8201 23.6885 22.1865C23.6211 22.0325 23.562 21.8702 23.4946 21.7176C23.639 21.6598 23.7683 21.5952 23.9085 21.5347C24.0515 21.4728 24.1945 21.4123 24.332 21.3477C24.6372 21.2047 24.9274 21.0562 25.2079 20.9022C25.2973 20.8527 25.3921 20.8073 25.4788 20.7578C25.8363 20.5516 26.1731 20.3357 26.4908 20.1143C26.5664 20.0607 26.6351 20.0057 26.708 19.9521C26.9473 19.7775 27.1769 19.6015 27.3928 19.4227C27.7514 19.1205 28.0964 18.8026 28.4268 18.4698C28.6128 18.2792 28.793 18.083 28.9671 17.8813C29.0001 17.8428 29.0386 17.8043 29.0703 17.7658C29.2443 17.5596 29.4121 17.3482 29.5735 17.132C30.8739 18.8033 31.5794 20.8608 31.5783 22.9785C31.5783 23.5656 31.5178 24.1665 31.3995 24.7728ZM22 13.4002C24.4695 13.4002 26.7767 14.3242 28.5615 16.0155C28.5422 16.0443 28.5258 16.0705 28.5051 16.098C28.4529 16.1708 28.3951 16.2451 28.3401 16.318C28.1715 16.5406 27.9954 16.7576 27.8121 16.9683C27.4732 17.3524 27.1109 17.7152 26.7273 18.0546C26.6461 18.1261 26.5705 18.1976 26.4852 18.2691C26.2249 18.4883 25.9551 18.6961 25.6768 18.892L25.6176 18.9305C25.3468 19.1188 25.058 19.3017 24.7541 19.4777C24.6428 19.5423 24.5204 19.6028 24.4035 19.6661C24.1771 19.7901 23.9469 19.907 23.7133 20.0167C23.5624 20.0861 23.4102 20.1526 23.2568 20.2161C23.133 20.2683 22.9996 20.3165 22.8718 20.3673C22.8374 20.2945 22.8016 20.2312 22.7673 20.1583C22.4904 19.5793 22.2039 19.0049 21.9079 18.4355L21.8419 18.3117C21.5817 17.8154 21.314 17.3231 21.0389 16.835L20.8588 16.516C20.5934 16.0512 20.3362 15.6126 20.0887 15.2028L19.9251 14.9361C19.7158 14.5946 19.5026 14.2554 19.2858 13.9186L19.2197 13.8141C20.121 13.5396 21.0579 13.4002 22 13.4002ZM17.8214 14.3627L17.8461 14.3998C18.4214 15.2803 18.9711 16.1772 19.4948 17.0893L19.5855 17.2502C19.8426 17.7012 20.1066 18.1838 20.3748 18.6871L20.5288 18.9758C20.8134 19.5176 21.1007 20.091 21.3895 20.6891L21.4514 20.8183C20.9949 20.9462 20.5466 21.0851 20.0599 21.1772C19.9856 21.191 19.9086 21.2006 19.8344 21.2143C18.3576 21.4756 16.7461 21.5691 15.0219 21.5031C14.8885 21.4976 14.7593 21.4976 14.6231 21.4907C13.9373 21.4475 13.2531 21.3819 12.5716 21.2941C12.8357 19.8057 13.4493 18.4013 14.362 17.1963C15.2746 15.9913 16.4602 15.0202 17.8214 14.3627ZM12.4218 22.9785L12.4245 22.7791C12.6197 22.8025 12.8012 22.8038 12.9951 22.8231C13.8288 22.9085 14.6654 22.9617 15.5031 22.9826C15.6887 22.9867 15.8868 23.0046 16.0696 23.0046H16.071C16.4656 23.0046 16.8451 22.9812 17.2274 22.9633C17.3883 22.9565 17.5532 22.9565 17.7114 22.9468C18.4044 22.9017 19.095 22.8241 19.7807 22.7145C19.954 22.687 20.1176 22.6485 20.2867 22.6168C20.7996 22.5206 21.2974 22.4065 21.78 22.2731C21.8804 22.2456 21.9904 22.2318 22.088 22.2016C22.1581 22.357 22.2255 22.5151 22.2943 22.6732C22.6171 23.4109 22.9243 24.1554 23.2155 24.9062C23.067 24.9488 22.9295 25.0025 22.7837 25.0492C22.295 25.1995 21.8153 25.3776 21.3469 25.5827C21.1915 25.6501 21.032 25.712 20.8807 25.7835C20.5384 25.9443 20.2097 26.1176 19.8907 26.2977C19.8137 26.3403 19.7312 26.3802 19.6556 26.4242C19.2638 26.6525 18.8925 26.8945 18.5378 27.1433C18.4388 27.2121 18.3494 27.285 18.2531 27.3551C18.0029 27.5393 17.7568 27.7236 17.5258 27.9133C17.4089 28.0096 17.3003 28.1058 17.1875 28.2021C16.9944 28.3678 16.8046 28.5375 16.6183 28.7108C16.5083 28.8153 16.401 28.9171 16.2965 29.0216C16.1301 29.1866 15.9706 29.3488 15.818 29.5125C15.7204 29.617 15.6214 29.7201 15.5292 29.8232L15.4206 29.9387C14.4722 29.0447 13.7168 27.9659 13.201 26.7689C12.6853 25.5718 12.4201 24.2819 12.4218 22.9785ZM16.5715 30.8668L16.6403 30.7871C16.7228 30.695 16.8135 30.6028 16.9001 30.5093C17.1384 30.2546 17.3856 30.0083 17.6412 29.771C18.0934 29.3479 18.5694 28.9513 19.0671 28.583C19.1785 28.5005 19.2858 28.4166 19.3999 28.3368C19.6749 28.1443 19.9636 27.9601 20.2606 27.7813C20.3156 27.7483 20.3651 27.7126 20.4215 27.6796C20.7763 27.4733 21.1489 27.2795 21.5366 27.098C21.6549 27.043 21.7814 26.9962 21.9024 26.944C22.1815 26.823 22.4647 26.7061 22.7604 26.6016C22.9171 26.5466 23.0794 26.4985 23.2416 26.4476C23.4011 26.3981 23.5689 26.3555 23.7339 26.3101C24.0433 27.1722 24.3458 28.0398 24.6166 28.9281L24.6551 29.045C24.9398 29.9882 25.1872 30.9493 25.4251 31.9146C23.9748 32.4698 22.4114 32.6645 20.8692 32.482C19.327 32.2995 17.8522 31.7452 16.5715 30.8668ZM26.7933 31.2601C26.5757 30.3991 26.3387 29.5432 26.0824 28.693L26.0549 28.5926C25.7917 27.7231 25.5083 26.8598 25.2051 26.0035C25.4045 25.9718 25.6025 25.9347 25.8046 25.9113C25.9724 25.8921 26.1401 25.8701 26.3093 25.8577C26.8001 25.8206 27.2965 25.8055 27.8025 25.8165C27.8589 25.8178 27.9139 25.8123 27.9702 25.8151C28.5381 25.8343 29.1143 25.8893 29.6986 25.9691C29.8568 25.9911 30.0176 26.0241 30.1771 26.0502C30.4494 26.0956 30.7257 26.1561 31.0007 26.2138C30.2419 28.3421 28.7504 30.1309 26.7933 31.2601Z" fill="white"/>
</g>
<defs>
<clipPath id="clip0">
<rect width="44" height="44" fill="white" transform="translate(0 0.978516)"/>
</clipPath>
</defs>
</svg>
