<svg width="44" height="45" viewBox="0 0 44 45" fill="none" xmlns="http://www.w3.org/2000/svg">
<g clip-path="url(#clip0)">
<path d="M21.9996 0.931396C9.84326 0.931396 -0.0484924 10.8204 -0.0484924 22.9781C-0.0484924 35.1359 9.84326 45.0249 21.9996 45.0249C34.156 45.0249 44.0478 35.1359 44.0478 22.9781C44.0478 10.8204 34.156 0.931396 21.9996 0.931396ZM21.9996 43.5564C10.6531 43.5564 1.42276 34.3246 1.42276 22.9781C1.42276 11.6316 10.6531 2.3999 21.9996 2.3999C33.3461 2.3999 42.5765 11.6316 42.5765 22.9781C42.5765 34.3246 33.3461 43.5564 21.9996 43.5564Z" fill="white"/>
<path d="M26.8125 10.6033H23.144C18.4718 10.5566 17.875 13.4482 17.875 16.5777V18.8533H15.8125C15.7193 18.8409 15.6244 18.8501 15.5354 18.8802C15.4463 18.9104 15.3653 18.9607 15.2988 19.0272C15.2323 19.0937 15.182 19.1746 15.1519 19.2637C15.1218 19.3528 15.1125 19.4476 15.125 19.5408V23.6658C15.1125 23.759 15.1218 23.8539 15.1519 23.943C15.182 24.0321 15.2323 24.113 15.2988 24.1795C15.3653 24.246 15.4463 24.2963 15.5354 24.3264C15.6244 24.3566 15.7193 24.3658 15.8125 24.3533H17.875V34.6658C17.8635 34.7592 17.8736 34.854 17.9044 34.9429C17.9351 35.0318 17.9858 35.1125 18.0525 35.1789C18.1193 35.2452 18.2003 35.2954 18.2894 35.3256C18.3785 35.3559 18.4733 35.3653 18.5666 35.3533H22.7673C23.1729 35.4001 23.5015 35.0715 23.3722 34.6658L23.375 24.3533H26.8125C26.9057 24.3658 27.0006 24.3566 27.0896 24.3264C27.1787 24.2963 27.2597 24.246 27.3262 24.1795C27.3927 24.113 27.443 24.0321 27.4731 23.943C27.5032 23.8539 27.5125 23.759 27.5 23.6658V19.5408C27.5125 19.4476 27.5032 19.3528 27.4731 19.2637C27.443 19.1746 27.3927 19.0937 27.3262 19.0272C27.2597 18.9607 27.1787 18.9104 27.0896 18.8802C27.0006 18.8501 26.9057 18.8409 26.8125 18.8533H23.3709L23.375 16.7908C23.5084 15.9122 23.5084 16.0552 24.3238 16.1033H26.7836C26.9747 16.0607 27.1783 16.0841 27.3213 15.9452C27.4643 15.8063 27.5468 15.6166 27.4986 15.4158V11.2908C27.5113 11.1977 27.5023 11.1029 27.4724 11.0138C27.4424 10.9247 27.3922 10.8437 27.3258 10.7771C27.2594 10.7106 27.1786 10.6603 27.0895 10.6301C27.0005 10.6 26.9057 10.5908 26.8125 10.6033ZM26.0769 14.6513L24.3526 14.5853C22.2173 14.5853 22.0385 15.7445 22.0385 16.9311L22.033 19.5381C22.0328 19.6346 22.0517 19.7302 22.0885 19.8195C22.1253 19.9087 22.1794 19.9898 22.2476 20.0582C22.3158 20.1265 22.3968 20.1807 22.4859 20.2177C22.5751 20.2547 22.6707 20.2737 22.7673 20.2737H26.125V22.9302H22.77C22.5751 22.9302 22.3882 23.0075 22.2503 23.1452C22.1124 23.2828 22.0347 23.4696 22.0344 23.6645L22.033 33.9783H19.25V23.6658C19.25 23.2602 18.9736 22.9316 18.5666 22.9316H16.5V20.2751H18.5666C18.6631 20.2752 18.7587 20.2564 18.8478 20.2195C18.937 20.1827 19.0181 20.1287 19.0864 20.0606C19.2239 19.9217 19.2486 19.7347 19.2486 19.5395V16.5763C19.2486 13.4936 19.8715 12.0251 23.1426 12.0251H26.0755V14.6513H26.0769Z" fill="white"/>
</g>
<defs>
<clipPath id="clip0">
<rect width="44" height="44" fill="white" transform="translate(0 0.978516)"/>
</clipPath>
</defs>
</svg>
