<svg width="44" height="45" viewBox="0 0 44 45" fill="none" xmlns="http://www.w3.org/2000/svg">
<g clip-path="url(#clip0)">
<path d="M26.8331 17.4126C25.9009 17.4126 25.2106 17.6477 24.6703 17.9447C24.5836 17.6367 24.299 17.4112 23.9635 17.4786H19.8605C19.4549 17.4112 19.1263 17.7398 19.2514 18.1661V33.2911C19.1263 33.6761 19.4549 34.0061 19.8605 33.9786H23.9635C24.3691 34.0061 24.6978 33.6761 24.6978 33.2705L24.6964 24.1295C24.695 24.1253 24.6799 23.6881 24.9563 23.387C25.1776 23.1477 25.5585 23.0253 26.0851 23.0253C26.9624 23.0253 27.3529 23.3842 27.4986 24.1872V33.2705C27.3543 33.6761 27.6829 34.0061 28.0885 33.9786H32.4129C32.8185 34.0061 33.1471 33.6761 33.0014 33.2705V23.882C33.1458 19.108 29.7454 17.4126 26.8331 17.4126ZM31.6773 32.6036H28.8228V24.1872C28.8228 22.5633 27.7736 21.5568 26.0865 21.5568C25.1323 21.5568 24.3898 21.8373 23.8783 22.3901C23.1674 23.1601 23.2224 24.1363 23.375 24.3536V32.6036H20.5948V18.8811H23.2293V19.3431C23.2282 19.4807 23.266 19.6159 23.3382 19.733C23.4105 19.8501 23.5144 19.9445 23.6379 20.0052C23.7614 20.066 23.8995 20.0906 24.0364 20.0764C24.1733 20.0622 24.3034 20.0096 24.4118 19.9247L24.6043 19.7762C25.1611 19.3376 25.7373 18.8825 26.8345 18.8825C27.9703 18.8825 31.6786 19.2441 31.6786 23.8833V32.6036H31.6773Z" fill="white"/>
<path d="M15.125 10.5566C13.5823 10.5566 12.3282 11.8106 12.3282 13.3534C12.3282 14.8961 13.5823 16.1501 15.125 16.1501C16.6677 16.1501 17.9218 14.8961 17.9218 13.3534C17.9218 11.8106 16.6677 10.5566 15.125 10.5566ZM15.125 14.6816C14.3935 14.6816 13.7968 14.0849 13.7968 13.3534C13.7968 12.6219 14.3935 12.0251 15.125 12.0251C15.8565 12.0251 16.4532 12.6219 16.4532 13.3534C16.4532 14.0849 15.8565 14.6816 15.125 14.6816Z" fill="white"/>
<path d="M17.0885 17.4111H13.0075C12.6019 17.4111 12.2732 17.7398 12.375 18.166V33.291C12.2732 33.676 12.6019 34.006 13.0075 33.9785H17.0885C17.4941 34.006 17.8227 33.676 17.8227 33.2704V18.1454C17.8227 17.9506 17.7454 17.7639 17.6077 17.6262C17.47 17.4885 17.2832 17.4111 17.0885 17.4111ZM16.5 32.6035H13.7418V18.881H16.5V32.6035Z" fill="white"/>
<path d="M21.9996 0.931396C9.8419 0.931396 -0.0471039 10.8204 -0.0471039 22.9781C-0.0471039 35.1359 9.8419 45.0249 21.9996 45.0249C34.1574 45.0249 44.0464 35.1359 44.0464 22.9781C44.0464 10.8204 34.1574 0.931396 21.9996 0.931396ZM21.9996 43.5564C10.6531 43.5564 1.4214 34.3246 1.4214 22.9781C1.4214 11.6316 10.6531 2.3999 21.9996 2.3999C33.3461 2.3999 42.5779 11.6316 42.5779 22.9781C42.5779 34.3246 33.3461 43.5564 21.9996 43.5564Z" fill="white"/>
</g>
<defs>
<clipPath id="clip0">
<rect width="44" height="44" fill="white" transform="translate(0 0.978516)"/>
</clipPath>
</defs>
</svg>
