<svg width="44" height="45" viewBox="0 0 44 45" fill="none" xmlns="http://www.w3.org/2000/svg">
<g clip-path="url(#clip0)">
<path d="M21.9996 0.931396C9.84326 0.931396 -0.0484924 10.8204 -0.0484924 22.9781C-0.0484924 35.1359 9.84326 45.0249 21.9996 45.0249C34.156 45.0249 44.0478 35.1359 44.0478 22.9781C44.0478 10.8204 34.156 0.931396 21.9996 0.931396ZM21.9996 43.5564C10.6531 43.5564 1.42276 34.3246 1.42276 22.9781C1.42276 11.6316 10.6531 2.3999 21.9996 2.3999C33.3461 2.3999 42.5765 11.6316 42.5765 22.9781C42.5765 34.3246 33.3461 43.5564 21.9996 43.5564Z" fill="white"/>
<path d="M34.0917 16.1666C34.2443 15.8843 34.3699 15.5883 34.4671 15.2825C34.5121 15.1407 34.513 14.9885 34.4697 14.8461C34.4264 14.7038 34.341 14.5779 34.2246 14.4851C34.1083 14.3923 33.9666 14.3369 33.8181 14.3264C33.6697 14.3158 33.5215 14.3505 33.3932 14.4259C32.6887 14.8445 31.926 15.1563 31.13 15.3513C30.1637 14.4792 28.9088 13.9958 27.6072 13.9941C26.9001 13.9947 26.2004 14.138 25.55 14.4155C24.8995 14.693 24.3119 15.099 23.8222 15.6092C23.3324 16.1193 22.9508 16.723 22.7001 17.3842C22.4493 18.0454 22.3347 18.7504 22.363 19.457C19.2706 19.0677 16.4468 17.5029 14.4774 15.0873C14.4019 14.9957 14.3055 14.9238 14.1963 14.8775C14.087 14.8312 13.9683 14.812 13.85 14.8215C13.7318 14.8309 13.6176 14.8688 13.5171 14.9318C13.4166 14.9948 13.3328 15.0812 13.2729 15.1835C12.8219 15.9575 12.5768 16.8342 12.5609 17.7299C12.545 18.6256 12.7589 19.5104 13.1821 20.2999C13.0783 20.3174 12.9786 20.3538 12.8879 20.4071C12.7767 20.478 12.6852 20.5758 12.6217 20.6914C12.5583 20.807 12.525 20.9367 12.5249 21.0685C12.5249 22.6291 13.2193 24.0619 14.3385 25.0354L14.2904 25.0835C14.2059 25.1791 14.1477 25.2951 14.1217 25.42C14.0957 25.5449 14.1026 25.6744 14.1419 25.7958C14.3753 26.5239 14.765 27.1922 15.2837 27.7539C15.8024 28.3156 16.4376 28.7571 17.1449 29.0476C15.6923 29.7562 14.0667 30.0326 12.4616 29.8438C12.2966 29.827 12.1307 29.8653 11.9899 29.9529C11.8491 30.0405 11.7413 30.1723 11.6834 30.3278C11.6278 30.4843 11.6268 30.6551 11.6804 30.8123C11.7341 30.9696 11.8393 31.1041 11.979 31.194C14.1611 32.5945 16.6997 33.3386 19.2926 33.3376C27.7901 33.3376 32.8694 26.4351 32.8694 19.7623L32.868 19.5368C33.6915 18.8938 34.4069 18.1233 34.9869 17.2543C35.0747 17.1229 35.1179 16.9667 35.1101 16.8089C35.1022 16.6511 35.0438 16.5 34.9433 16.3779C34.8429 16.2559 34.7059 16.1695 34.5525 16.1314C34.3991 16.0934 34.2376 16.1057 34.0917 16.1666ZM31.6924 18.5798C31.5926 18.6515 31.5124 18.7471 31.4591 18.8578C31.4057 18.9686 31.381 19.0909 31.3871 19.2136C31.3954 19.3951 31.3995 19.5794 31.3995 19.7609C31.3995 25.7119 26.8716 31.8678 19.294 31.8678C17.9425 31.8684 16.6006 31.6416 15.3244 31.1968C16.8528 30.9039 18.2886 30.2484 19.5112 29.2855C19.6303 29.1917 19.7174 29.0634 19.7607 28.9181C19.804 28.7729 19.8014 28.6178 19.7533 28.4741C19.7051 28.3304 19.6138 28.2051 19.4917 28.1153C19.3696 28.0255 19.2228 27.9756 19.0712 27.9724C18.4784 27.9611 17.8965 27.8106 17.3725 27.533C16.8484 27.2555 16.397 26.8587 16.0545 26.3746C16.4024 26.3513 16.7434 26.2935 17.0747 26.2041C17.2351 26.1612 17.3762 26.0652 17.475 25.9318C17.5738 25.7984 17.6245 25.6354 17.6187 25.4695C17.613 25.3035 17.5512 25.1445 17.4434 25.0182C17.3356 24.8919 17.1882 24.8059 17.0252 24.7741C16.3557 24.6379 15.7357 24.3223 15.2317 23.8609C14.7277 23.3995 14.3586 22.8097 14.1639 22.1548C14.5296 22.2469 14.905 22.3005 15.2804 22.3129C15.6035 22.3115 15.9032 22.1135 16.0036 21.8028C16.104 21.492 15.9857 21.1496 15.7121 20.9681C15.0651 20.5371 14.567 19.9168 14.2857 19.1921C14.0044 18.4673 13.9537 17.6734 14.1405 16.9188C16.5289 19.3694 19.754 20.8288 23.1715 21.0053C23.4135 21.0066 23.6252 20.92 23.7724 20.7426C23.9195 20.5653 23.9759 20.3301 23.9236 20.1046C23.7356 19.2948 23.8197 18.4455 24.1629 17.6882C24.5062 16.931 25.0895 16.308 25.8225 15.9156C26.5555 15.5233 27.3975 15.3835 28.2179 15.5178C29.0384 15.6522 29.7918 16.0532 30.3614 16.6589C30.4467 16.75 30.5539 16.8178 30.6727 16.8561C30.7915 16.8943 30.9182 16.9017 31.0406 16.8775C31.2675 16.8321 31.4916 16.7799 31.713 16.7194C31.6132 16.7941 31.5095 16.8634 31.4022 16.927C31.2597 17.0144 31.1511 17.1477 31.0944 17.305C31.0377 17.4623 31.0364 17.6342 31.0905 17.7924C31.1446 17.9506 31.251 18.0857 31.3922 18.1753C31.5333 18.2649 31.7008 18.3038 31.867 18.2855L32.1172 18.2539C31.9794 18.3674 31.8377 18.4761 31.6924 18.5798Z" fill="white"/>
</g>
<defs>
<clipPath id="clip0">
<rect width="44" height="44" fill="white" transform="translate(0 0.978516)"/>
</clipPath>
</defs>
</svg>
