<svg width="179" height="52" viewBox="0 0 179 52" fill="none" xmlns="http://www.w3.org/2000/svg">
<path d="M13.0188 42.0578C12.063 43.9695 9.67335 44.4474 7.76167 43.4916C5.84998 42.5357 5.37205 40.1461 6.3279 38.2344L18.037 18.1617C18.9928 16.25 21.3825 15.7721 23.2941 16.7279C25.2058 17.6838 25.6838 20.0734 24.7279 21.9851L13.0188 42.0578Z" fill="#F36B21"/>
<path d="M29.9188 38.981C28.724 40.8927 26.3344 41.6096 24.6617 40.4148C22.75 39.4589 22.2721 36.8303 23.2279 34.9187L35.176 14.368C36.3708 12.4563 38.7604 11.7394 40.4331 12.9342C42.3448 13.8901 42.8227 16.5186 41.8669 18.4303L29.9188 38.981Z" fill="#F36B21"/>
<path d="M46.8188 34.6029C45.624 36.5146 43.4733 37.2315 41.5617 36.0367C39.65 35.0809 39.172 32.6912 40.1279 30.7796L51.837 10.4678C53.0318 8.55616 55.1824 7.83927 57.0941 9.03408C59.0058 9.98992 59.4837 12.3795 58.5279 14.2912L46.8188 34.6029Z" fill="#F36B21"/>
<path d="M72.2801 37.4901C70.5901 37.4901 69.3551 36.9701 68.5751 35.9301C67.8167 34.8901 67.4376 33.3518 67.4376 31.3151V21.3051H70.1351V30.9576C70.1351 32.4526 70.3626 33.5359 70.8176 34.2076C71.2942 34.8576 72.0526 35.1826 73.0926 35.1826C73.9159 35.1826 74.6417 34.9768 75.2701 34.5651C75.8984 34.1318 76.5917 33.4493 77.3501 32.5176V21.3051H80.0151V37.1001H77.8051L77.5776 34.6301H77.4801C76.7434 35.4968 75.9634 36.1901 75.1401 36.7101C74.3384 37.2301 73.3851 37.4901 72.2801 37.4901ZM85.3433 43.7626V21.3051H87.5533L87.7808 23.1251H87.8783C88.5933 22.5184 89.3733 21.9984 90.2183 21.5651C91.085 21.1318 91.9841 20.9151 92.9158 20.9151C93.9341 20.9151 94.8333 21.1101 95.6133 21.5001C96.3933 21.8684 97.0433 22.4101 97.5633 23.1251C98.0833 23.8184 98.4733 24.6634 98.7333 25.6601C99.015 26.6351 99.1558 27.7401 99.1558 28.9751C99.1558 30.3184 98.9716 31.5209 98.6033 32.5826C98.235 33.6226 97.7366 34.5109 97.1083 35.2476C96.48 35.9843 95.7541 36.5476 94.9308 36.9376C94.1075 37.3059 93.2408 37.4901 92.3308 37.4901C91.5941 37.4901 90.8575 37.3276 90.1208 37.0026C89.4058 36.6776 88.68 36.2334 87.9433 35.6701L88.0083 38.4326V43.7626H85.3433ZM91.8758 35.2476C92.5258 35.2476 93.1216 35.1068 93.6633 34.8251C94.2266 34.5218 94.7033 34.1101 95.0933 33.5901C95.505 33.0484 95.8191 32.3876 96.0358 31.6076C96.2741 30.8276 96.3933 29.9501 96.3933 28.9751C96.3933 28.1084 96.3175 27.3176 96.1658 26.6026C96.0141 25.8876 95.765 25.2809 95.4183 24.7826C95.0933 24.2626 94.66 23.8618 94.1183 23.5801C93.5983 23.2984 92.97 23.1576 92.2333 23.1576C91.5616 23.1576 90.8791 23.3418 90.1858 23.7101C89.5141 24.0784 88.7883 24.6093 88.0083 25.3026V33.5901C88.7233 34.1968 89.4166 34.6301 90.0883 34.8901C90.76 35.1284 91.3558 35.2476 91.8758 35.2476ZM107.498 37.4901C106.371 37.4901 105.299 37.2843 104.281 36.8726C103.262 36.4609 102.374 35.9409 101.616 35.3126L102.948 33.5251C103.641 34.0884 104.346 34.5434 105.061 34.8901C105.797 35.2368 106.642 35.4101 107.596 35.4101C108.636 35.4101 109.416 35.1718 109.936 34.6951C110.456 34.2184 110.716 33.6334 110.716 32.9401C110.716 32.5284 110.607 32.1709 110.391 31.8676C110.174 31.5643 109.892 31.3043 109.546 31.0876C109.221 30.8493 108.841 30.6434 108.408 30.4701C107.975 30.2968 107.541 30.1234 107.108 29.9501C106.545 29.7551 105.981 29.5384 105.418 29.3001C104.855 29.0401 104.346 28.7368 103.891 28.3901C103.457 28.0218 103.1 27.5993 102.818 27.1226C102.536 26.6459 102.396 26.0718 102.396 25.4001C102.396 24.7718 102.515 24.1868 102.753 23.6451C103.013 23.0818 103.371 22.6051 103.826 22.2151C104.302 21.8034 104.876 21.4893 105.548 21.2726C106.22 21.0343 106.978 20.9151 107.823 20.9151C108.82 20.9151 109.73 21.0884 110.553 21.4351C111.398 21.7818 112.124 22.2043 112.731 22.7026L111.463 24.3926C110.921 23.9809 110.358 23.6451 109.773 23.3851C109.188 23.1251 108.549 22.9951 107.856 22.9951C106.859 22.9951 106.122 23.2226 105.646 23.6776C105.191 24.1326 104.963 24.6634 104.963 25.2701C104.963 25.6384 105.061 25.9634 105.256 26.2451C105.451 26.5051 105.711 26.7434 106.036 26.9601C106.361 27.1551 106.729 27.3393 107.141 27.5126C107.574 27.6643 108.018 27.8268 108.473 28.0001C109.036 28.2168 109.6 28.4443 110.163 28.6826C110.748 28.9209 111.268 29.2243 111.723 29.5926C112.178 29.9393 112.546 30.3726 112.828 30.8926C113.131 31.4126 113.283 32.0409 113.283 32.7776C113.283 33.4276 113.153 34.0343 112.893 34.5976C112.655 35.1609 112.286 35.6593 111.788 36.0926C111.311 36.5259 110.705 36.8618 109.968 37.1001C109.253 37.3601 108.43 37.4901 107.498 37.4901ZM116.986 37.1001V13.9601H119.651V20.2651L119.554 23.5151C120.312 22.8001 121.103 22.1934 121.926 21.6951C122.75 21.1751 123.714 20.9151 124.819 20.9151C126.487 20.9151 127.701 21.4351 128.459 22.4751C129.239 23.5151 129.629 25.0534 129.629 27.0901V37.1001H126.964V27.4476C126.964 25.9526 126.726 24.8801 126.249 24.2301C125.772 23.5584 125.014 23.2226 123.974 23.2226C123.151 23.2226 122.425 23.4284 121.796 23.8401C121.168 24.2518 120.453 24.8584 119.651 25.6601V37.1001H116.986ZM140.807 37.4901C139.832 37.4901 138.9 37.3059 138.012 36.9376C137.145 36.5693 136.376 36.0384 135.705 35.3451C135.033 34.6301 134.491 33.7634 134.08 32.7451C133.69 31.7051 133.495 30.5351 133.495 29.2351C133.495 27.9134 133.69 26.7434 134.08 25.7251C134.491 24.6851 135.033 23.8076 135.705 23.0926C136.376 22.3776 137.145 21.8359 138.012 21.4676C138.9 21.0993 139.832 20.9151 140.807 20.9151C141.782 20.9151 142.703 21.0993 143.57 21.4676C144.458 21.8359 145.238 22.3776 145.91 23.0926C146.581 23.8076 147.112 24.6851 147.502 25.7251C147.914 26.7434 148.12 27.9134 148.12 29.2351C148.12 30.5351 147.914 31.7051 147.502 32.7451C147.112 33.7634 146.581 34.6301 145.91 35.3451C145.238 36.0384 144.458 36.5693 143.57 36.9376C142.703 37.3059 141.782 37.4901 140.807 37.4901ZM140.807 35.2801C141.479 35.2801 142.096 35.1393 142.66 34.8576C143.223 34.5543 143.7 34.1426 144.09 33.6226C144.501 33.0809 144.815 32.4418 145.032 31.7051C145.249 30.9684 145.357 30.1451 145.357 29.2351C145.357 28.3251 145.249 27.5018 145.032 26.7651C144.815 26.0068 144.501 25.3568 144.09 24.8151C143.7 24.2734 143.223 23.8618 142.66 23.5801C142.096 23.2768 141.479 23.1251 140.807 23.1251C140.135 23.1251 139.518 23.2768 138.955 23.5801C138.391 23.8618 137.904 24.2734 137.492 24.8151C137.102 25.3568 136.799 26.0068 136.582 26.7651C136.365 27.5018 136.257 28.3251 136.257 29.2351C136.257 30.1451 136.365 30.9684 136.582 31.7051C136.799 32.4418 137.102 33.0809 137.492 33.6226C137.904 34.1426 138.391 34.5543 138.955 34.8576C139.518 35.1393 140.135 35.2801 140.807 35.2801ZM158.422 37.4901C157.447 37.4901 156.515 37.3059 155.627 36.9376C154.76 36.5693 153.991 36.0384 153.319 35.3451C152.648 34.6301 152.106 33.7634 151.694 32.7451C151.304 31.7051 151.109 30.5351 151.109 29.2351C151.109 27.9134 151.304 26.7434 151.694 25.7251C152.106 24.6851 152.648 23.8076 153.319 23.0926C153.991 22.3776 154.76 21.8359 155.627 21.4676C156.515 21.0993 157.447 20.9151 158.422 20.9151C159.397 20.9151 160.318 21.0993 161.184 21.4676C162.073 21.8359 162.853 22.3776 163.524 23.0926C164.196 23.8076 164.727 24.6851 165.117 25.7251C165.528 26.7434 165.734 27.9134 165.734 29.2351C165.734 30.5351 165.528 31.7051 165.117 32.7451C164.727 33.7634 164.196 34.6301 163.524 35.3451C162.853 36.0384 162.073 36.5693 161.184 36.9376C160.318 37.3059 159.397 37.4901 158.422 37.4901ZM158.422 35.2801C159.093 35.2801 159.711 35.1393 160.274 34.8576C160.838 34.5543 161.314 34.1426 161.704 33.6226C162.116 33.0809 162.43 32.4418 162.647 31.7051C162.863 30.9684 162.972 30.1451 162.972 29.2351C162.972 28.3251 162.863 27.5018 162.647 26.7651C162.43 26.0068 162.116 25.3568 161.704 24.8151C161.314 24.2734 160.838 23.8618 160.274 23.5801C159.711 23.2768 159.093 23.1251 158.422 23.1251C157.75 23.1251 157.133 23.2768 156.569 23.5801C156.006 23.8618 155.518 24.2734 155.107 24.8151C154.717 25.3568 154.413 26.0068 154.197 26.7651C153.98 27.5018 153.872 28.3251 153.872 29.2351C153.872 30.1451 153.98 30.9684 154.197 31.7051C154.413 32.4418 154.717 33.0809 155.107 33.6226C155.518 34.1426 156.006 34.5543 156.569 34.8576C157.133 35.1393 157.75 35.2801 158.422 35.2801ZM174.327 37.4901C173.482 37.4901 172.767 37.3601 172.182 37.1001C171.619 36.8401 171.153 36.4826 170.785 36.0276C170.438 35.5726 170.189 35.0201 170.037 34.3701C169.885 33.7201 169.81 33.0051 169.81 32.2251V23.4826H167.47V21.4676L169.94 21.3051L170.265 16.8851H172.507V21.3051H176.765V23.4826H172.507V32.2576C172.507 33.2326 172.68 33.9909 173.027 34.5326C173.395 35.0526 174.035 35.3126 174.945 35.3126C175.226 35.3126 175.53 35.2693 175.855 35.1826C176.18 35.0959 176.472 34.9984 176.732 34.8901L177.252 36.9051C176.819 37.0568 176.342 37.1868 175.822 37.2951C175.324 37.4251 174.825 37.4901 174.327 37.4901Z" fill="#FAFAFA"/>
</svg>
